<svg width="21" height="20" viewBox="0 0 21 20" fill="none" xmlns="http://www.w3.org/2000/svg">
<g clip-path="url(#clip0_17_1097)">
<path d="M17.5 0H3.5C1.84315 0 0.5 1.34315 0.5 3V17C0.5 18.6569 1.84315 20 3.5 20H17.5C19.1569 20 20.5 18.6569 20.5 17V3C20.5 1.34315 19.1569 0 17.5 0Z" fill="#F5C518"/>
<path d="M4.5625 12.8125V7.1875H3V12.8125H4.5625ZM7.88281 7.1875L7.53125 9.80469L7.33594 8.39844L7.14062 7.1875H5.1875V12.8125H6.51562V9.10156L7.0625 12.8125H8.03906L8.54688 9.02344V12.8125H9.875V7.1875H7.88281ZM10.5 12.8125V7.1875H12.9219C13.5078 7.1875 13.9375 7.61719 13.9375 8.16406V11.8359C13.9375 12.3828 13.5078 12.8125 12.9219 12.8125H10.5ZM12.3359 8.20312L11.9844 8.16406V11.8359C12.1797 11.8359 12.3359 11.7969 12.375 11.7188C12.4531 11.6406 12.4531 11.4062 12.4531 11.0156V8.82812V8.35938L12.3359 8.20312ZM16.8672 8.59375H16.9844C17.5312 8.59375 18 9.02344 18 9.57031V11.8359C18 12.3828 17.5312 12.8125 16.9844 12.8125H16.8672C16.5547 12.8125 16.2422 12.6562 16.0469 12.3828L15.9688 12.7344H14.5625V7.1875H16.0469V8.98438C16.2422 8.75 16.5547 8.59375 16.8672 8.59375ZM16.5547 11.3281V10L16.5156 9.57031C16.4766 9.49219 16.3594 9.45312 16.2812 9.45312C16.2031 9.45312 16.0859 9.49219 16.0469 9.57031V11.7969C16.0859 11.875 16.2031 11.9141 16.2812 11.9141C16.3594 11.9141 16.5156 11.875 16.5156 11.7969L16.5547 11.3281Z" fill="black"/>
</g>
<defs>
<clipPath id="clip0_17_1097">
<rect width="20" height="20" fill="white" transform="translate(0.5)"/>
</clipPath>
</defs>
</svg>
