<svg width="18" height="12" viewBox="0 0 18 12" fill="none" xmlns="http://www.w3.org/2000/svg">
<path d="M0.75 12C0.33579 12 0 11.6642 0 11.25C0 10.8358 0.33579 10.5 0.75 10.5H17.25C17.6642 10.5 18 10.8358 18 11.25C18 11.6642 17.6642 12 17.25 12H0.75ZM0.75 6.74997C0.33579 6.74997 0 6.41417 0 5.99997C0 5.58577 0.33579 5.24997 0.75 5.24997H9.375C9.7892 5.24997 10.125 5.58577 10.125 5.99997C10.125 6.41417 9.7892 6.74997 9.375 6.74997H0.75ZM0.75 1.5C0.33579 1.5 0 1.16422 0 0.75C0 0.33579 0.33579 0 0.75 0H17.25C17.6642 0 18 0.33579 18 0.75C18 1.16422 17.6642 1.5 17.25 1.5H0.75Z" fill="#CDCDCD"/>
</svg>
